HIERARCHY
ROOT Hips
{
	OFFSET -0.001795 -0.223333 0.028219
	CHANNELS 6 Xposition Yposition Zposition Zrotation Yrotation Xrotation 
	JOINT LeftUpLeg
	{
		OFFSET 0.069520 -0.091406 -0.006815
		CHANNELS 3 Zrotation Yrotation Xrotation
		JOINT LeftLeg
		{
			OFFSET 0.034277 -0.375199 -0.004496
			CHANNELS 3 Zrotation Yrotation Xrotation
			JOINT LeftFoot
			{
				OFFSET -0.013596 -0.397961 -0.043693
				CHANNELS 3 Zrotation Yrotation Xrotation
				JOINT LeftToe
				{
					OFFSET 0.026358 -0.055791 0.119288
					CHANNELS 3 Zrotation Yrotation Xrotation
					End Site
					{
						OFFSET 0.000000 0.000000 0.000000
					}
				}
			}
		}
	}
	JOINT RightUpLeg
	{
		OFFSET -0.067670 -0.090522 -0.004320
		CHANNELS 3 Zrotation Yrotation Xrotation
		JOINT RightLeg
		{
			OFFSET -0.038290 -0.382569 -0.008850
			CHANNELS 3 Zrotation Yrotation Xrotation
			JOINT RightFoot
			{
				OFFSET 0.015774 -0.398415 -0.042312
				CHANNELS 3 Zrotation Yrotation Xrotation
				JOINT RightToe
				{
					OFFSET -0.025372 -0.048144 0.123348
					CHANNELS 3 Zrotation Yrotation Xrotation
					End Site
					{
						OFFSET 0.000000 0.000000 0.000000
					}
				}
			}
		}
	}
	JOINT Spine
	{
		OFFSET -0.002533 0.108963 -0.026696
		CHANNELS 3 Zrotation Yrotation Xrotation
		JOINT Spine1
		{
			OFFSET 0.005487 0.135180 0.001092
			CHANNELS 3 Zrotation Yrotation Xrotation
			JOINT Spine2
			{
				OFFSET 0.001457 0.052922 0.025425
				CHANNELS 3 Zrotation Yrotation Xrotation
				JOINT Neck
				{
					OFFSET -0.002778 0.213870 -0.042857
					CHANNELS 3 Zrotation Yrotation Xrotation
					JOINT Head
					{
						OFFSET 0.005152 0.064970 0.051349
						CHANNELS 3 Zrotation Yrotation Xrotation
						End Site
						{
							OFFSET 0.000000 0.000000 0.000000
						}
					}
				}
				JOINT LeftShoulder
				{
					OFFSET 0.078845 0.121749 -0.034090
					CHANNELS 3 Zrotation Yrotation Xrotation
					JOINT LeftArm
					{
						OFFSET 0.090977 0.030469 -0.008868
						CHANNELS 3 Zrotation Yrotation Xrotation
						JOINT LeftForeArm
						{
							OFFSET 0.259612 -0.012772 -0.027456
							CHANNELS 3 Zrotation Yrotation Xrotation
							JOINT LeftHand
							{
								OFFSET 0.249234 0.008986 -0.001171
								CHANNELS 3 Zrotation Yrotation Xrotation
								End Site
								{
									OFFSET 0.000000 0.000000 0.000000
								}
							}
						}
					}
				}
				JOINT RightShoulder
				{
					OFFSET -0.081759 0.118833 -0.038615
					CHANNELS 3 Zrotation Yrotation Xrotation
					JOINT RightArm
					{
						OFFSET -0.096012 0.032551 -0.009143
						CHANNELS 3 Zrotation Yrotation Xrotation
						JOINT RightForeArm
						{
							OFFSET -0.253742 -0.013329 -0.021401
							CHANNELS 3 Zrotation Yrotation Xrotation
							JOINT RightHand
							{
								OFFSET -0.255298 0.007772 -0.005559
								CHANNELS 3 Zrotation Yrotation Xrotation
								End Site
								{
									OFFSET 0.000000 0.000000 0.000000
								}
							}
						}
					}
				}
			}
		}
	}
}
MOTION
Frames: 8
Frame Time: 0.050000
0.000000 0.916375 0.000000 -0.226827 -1.455166 -3.491292 10.364956 0.002079 -8.508914 -11.149628 2.913204 23.379960 11.848755 22.902051 14.506009 0.000000 0.000000 0.000000 -7.197193 0.640942 -13.328562 5.705250 -0.748165 24.337646 -4.678382 -13.318478 8.368991 0.000000 0.000000 0.000000 4.368178 -1.401213 18.372651 -7.962549 2.838635 -18.531485 -4.693522 3.193168 26.755610 9.744320 -3.523584 -27.514482 0.000000 0.000000 0.000000 -8.790236 -24.061961 9.471491 -43.043624 -41.583499 7.890846 43.627692 -57.476013 -21.310242 0.000000 0.000000 0.000000 15.786716 10.859301 5.214764 38.292682 44.556285 8.144422 -62.270024 80.562962 -47.583501 0.000000 0.000000 0.000000 
-0.000140 0.916149 0.000041 -0.409516 -2.667454 -2.657351 11.230683 0.089337 -8.615581 -12.378217 3.353760 22.323760 12.408156 23.620765 14.739240 0.000000 0.000000 0.000000 -7.023426 0.721871 -13.713525 5.784299 -0.679066 23.076269 -4.290405 -12.517106 7.686594 0.000000 0.000000 0.000000 4.657945 -1.311091 16.869865 -7.631206 2.680237 -19.000004 -5.645718 3.852193 27.369980 9.903352 -3.465067 -28.491492 0.000000 0.000000 0.000000 -9.356244 -23.929045 9.559259 -42.571946 -41.616214 7.707534 43.965042 -55.706493 -20.667436 0.000000 0.000000 0.000000 14.358693 10.532636 4.922515 34.470897 49.274174 8.378411 -76.387133 76.804207 -57.291345 0.000000 0.000000 0.000000 
-0.000226 0.916360 0.000145 -0.758413 -1.500614 -2.906322 11.349348 0.064559 -8.664837 -11.800342 3.066441 22.599028 11.852324 22.930832 14.103834 0.000000 0.000000 0.000000 -6.691114 0.700288 -13.314531 5.867272 -0.797228 23.225467 -4.719646 -13.369665 8.159708 0.000000 0.000000 0.000000 5.667712 -1.513597 17.153515 -7.681219 2.760751 -18.207311 -6.468721 3.559001 27.097486 10.563078 -4.180308 -26.157462 0.000000 0.000000 0.000000 -10.382729 -24.647754 9.960105 -41.742170 -42.220329 7.723573 44.045315 -54.351602 -20.258289 0.000000 0.000000 0.000000 11.979137 10.396480 4.728332 27.136688 53.235573 6.693758 -88.608599 69.032321 -61.120441 0.000000 0.000000 0.000000 
-0.000289 0.919128 0.000626 -0.556415 -1.195695 -3.316160 10.676239 0.011451 -7.956541 -11.034101 2.751382 22.081493 11.603090 22.568912 14.594646 0.000000 0.000000 0.000000 -6.735980 0.654850 -12.722627 5.563416 -0.722272 23.074618 -4.677933 -13.405732 9.017370 0.000000 0.000000 0.000000 6.388295 -1.595937 16.921114 -8.082376 2.917793 -17.809710 -7.598823 3.376655 27.238439 11.217367 -4.462471 -26.686128 0.000000 0.000000 0.000000 -9.568104 -25.618657 10.213807 -41.411779 -42.830227 7.901709 41.351538 -51.996037 -17.918142 0.000000 0.000000 0.000000 9.079839 8.780811 3.762600 20.942290 57.295323 4.917572 -90.562852 60.339028 -54.481503 0.000000 0.000000 0.000000 
-0.000477 0.922210 0.001566 -0.565836 -0.999865 -3.498012 10.134026 -0.026056 -7.042987 -10.116162 2.368486 20.902205 11.423275 22.318401 14.859965 0.000000 0.000000 0.000000 -6.317900 0.660049 -12.177220 4.894363 -0.527723 22.610698 -4.631125 -13.435073 9.870348 0.000000 0.000000 0.000000 6.087297 -1.565071 17.046050 -7.516392 2.742129 -17.973571 -7.924759 3.650704 26.946865 12.012763 -4.955236 -26.178891 0.000000 0.000000 0.000000 -9.708272 -26.588422 10.579375 -41.183212 -42.374647 7.683591 37.698486 -50.683121 -15.695323 0.000000 0.000000 0.000000 6.364283 8.736266 3.558004 10.822172 58.481204 0.459842 -89.348679 49.876982 -43.774120 0.000000 0.000000 0.000000 
-0.000872 0.925129 0.002562 -0.565581 -0.452045 -3.134671 9.597107 -0.079282 -6.688323 -9.181192 1.972619 19.541769 11.128346 21.932313 14.967807 0.000000 0.000000 0.000000 -5.981805 0.681880 -12.147521 4.368387 -0.406045 22.103002 -4.768204 -13.783639 10.781013 0.000000 0.000000 0.000000 6.233242 -1.525951 16.165335 -7.316130 2.683789 -18.011567 -8.547031 4.080624 27.286246 13.298574 -5.639746 -26.141598 0.000000 0.000000 0.000000 -9.070561 -27.389063 10.690587 -41.316774 -42.280358 7.630247 33.084274 -49.502785 -13.188841 0.000000 0.000000 0.000000 4.116847 7.907549 3.100115 0.974105 57.968670 -4.010479 -87.757950 41.140367 -34.779913 0.000000 0.000000 0.000000 
-0.001687 0.926858 0.003225 -0.473375 0.293877 -3.118996 9.205448 -0.119390 -6.664067 -8.534961 1.722426 19.296307 10.701868 21.374381 15.135917 0.000000 0.000000 0.000000 -5.744192 0.680511 -12.019055 3.894959 -0.310978 22.127072 -5.037312 -14.298369 11.440015 0.000000 0.000000 0.000000 6.547918 -1.559900 15.878945 -7.616322 2.789127 -18.051387 -8.774447 3.738991 27.341740 14.145230 -6.117844 -26.298710 0.000000 0.000000 0.000000 -8.390505 -28.124940 10.845524 -41.864065 -42.957429 8.049212 29.253704 -48.663331 -11.165608 0.000000 0.000000 0.000000 2.100788 7.546212 2.800760 -7.200666 56.315525 -7.471417 -83.070276 35.053298 -27.363567 0.000000 0.000000 0.000000 
-0.003385 0.927611 0.003592 -0.497679 0.886320 -2.873173 8.880106 -0.162492 -7.156821 -7.707435 1.455678 19.538005 10.433646 21.034314 15.242675 0.000000 0.000000 0.000000 -5.206045 0.741956 -12.410634 3.514903 -0.227707 23.307804 -5.363306 -14.707095 10.207262 0.000000 0.000000 0.000000 6.729311 -1.564008 15.469936 -7.524575 2.774700 -17.909400 -9.345721 4.000328 27.231233 15.369536 -6.788127 -26.232366 0.000000 0.000000 0.000000 -8.349306 -29.433864 11.284823 -42.359581 -43.687360 8.477758 25.317066 -48.608973 -9.420696 0.000000 0.000000 0.000000 0.543759 7.544540 2.680801 -12.480936 53.450019 -8.991033 -76.780730 31.736390 -22.212130 0.000000 0.000000 0.000000 
